<svg width="40" height="21" viewBox="0 0 40 21" fill="none" xmlns="http://www.w3.org/2000/svg">
<g clip-path="url(#clip0_1207_234)">
<path d="M0.00488281 0.691406H39.9949V20.6914H0.00488281V0.691406Z" fill="black"/>
<path d="M8.24441 6.81793C8.62928 6.68215 9.0398 6.60973 9.46572 6.60973C11.3302 6.60973 12.8867 8.01102 13.2425 9.87397L15.8853 9.30368C15.2797 6.13902 12.6353 3.75647 9.46572 3.75647C8.73875 3.75647 8.04257 3.88139 7.38916 4.11313L8.24441 6.81793Z" fill="#FFCB05"/>
<path d="M5.12624 15.881L6.91372 13.7429C6.11662 12.9952 5.61373 11.9035 5.61373 10.6869C5.61373 9.47206 6.11662 8.38036 6.91372 7.63445L5.12624 5.49451C3.77151 6.76544 2.91626 8.62115 2.91626 10.6869C2.91626 12.7544 3.77151 14.6101 5.12624 15.881" fill="#00A4E0"/>
<path d="M13.2425 11.5052C12.885 13.3664 11.3302 14.7659 9.46743 14.7659C9.0398 14.7659 8.62757 14.6934 8.24441 14.5559L7.38916 17.2643C8.04257 17.4942 8.74046 17.6191 9.46743 17.6191C12.6336 17.6191 15.2763 15.2402 15.8853 12.0792L13.2425 11.5052Z" fill="#EF4123"/>
<path d="M18.1962 13.8316C18.1089 13.6831 17.9926 13.4459 17.9208 13.2703C17.5017 12.242 17.4829 11.1775 17.8353 10.1564C18.2235 9.03569 18.9659 8.17935 19.9255 7.74122C21.1314 7.19266 22.4639 7.29948 23.6202 8.02546C24.354 8.47083 24.874 9.1588 25.2691 10.1328C25.3187 10.2577 25.3632 10.3899 25.4077 10.504L18.1962 13.8316ZM20.6046 9.39416C19.7476 9.78341 19.3063 10.6343 19.3987 11.6301L23.0249 9.97713C22.4006 9.20226 21.5898 8.94517 20.6046 9.39416ZM23.4765 12.9897C23.4748 12.9897 23.4748 12.9915 23.4748 12.9915L23.3995 12.9372C23.1823 13.3083 22.8453 13.6107 22.4194 13.8062C21.6086 14.1792 20.8577 14.0832 20.3172 13.5817L20.2676 13.6614C20.2676 13.6614 20.2676 13.6596 20.2659 13.6596L19.3456 15.117C19.5748 15.2854 19.8194 15.4266 20.076 15.5406C21.0921 15.9878 22.1321 15.9661 23.1566 15.4954C23.8973 15.155 24.4789 14.6372 24.8757 13.98L23.4765 12.9897ZM27.9273 5.59766V13.6976L29.1178 14.2081L28.4421 15.8774L27.1285 15.298C26.8342 15.1622 26.6324 14.9559 26.4819 14.7223C26.3365 14.4851 26.2287 14.1574 26.2287 13.7193V5.59766H27.9273ZM31.0096 11.6355C31.0096 10.9457 31.2987 10.3265 31.7537 9.90652L30.5324 8.4654C29.7045 9.24027 29.1828 10.3718 29.1828 11.6319C29.1811 12.8938 29.7028 14.0271 30.5289 14.802L31.7485 13.3608C31.2953 12.939 31.0096 12.3235 31.0096 11.6355ZM33.1785 13.933C32.9391 13.933 32.7064 13.8895 32.4909 13.8135L31.9076 15.6474C32.3062 15.7887 32.7321 15.8665 33.1768 15.8665C35.1097 15.8683 36.7227 14.4163 37.0973 12.4882L35.3047 12.1008C35.1011 13.149 34.2271 13.9348 33.1785 13.933ZM33.1837 7.40448C32.7406 7.40448 32.3147 7.48052 31.9162 7.61993L32.4943 9.45572C32.7116 9.37968 32.9425 9.33804 33.1819 9.33804C34.2322 9.33985 35.108 10.1292 35.3064 11.1793L37.099 10.7954C36.7313 8.8637 35.1182 7.40629 33.1837 7.40448Z" fill="white"/>
</g>
<defs>
<clipPath id="clip0_1207_234">
<rect width="40" height="20" fill="white" transform="translate(0 0.691406)"/>
</clipPath>
</defs>
</svg>
